<svg width="74" height="63" viewBox="0 0 74 63" fill="none" xmlns="http://www.w3.org/2000/svg">
<path d="M39.0702 46.9066C26.6449 49.1621 18.068 39.1826 14.2667 33.4746C13.6779 32.5904 12.0526 33.0233 12.0526 34.0856V44.12L2.15914 48.2772C1.56619 48.5264 1.36046 49.2616 1.77825 49.7506C6.22485 54.9552 18.1751 62.8167 36.614 58.9815C54.5916 55.2423 61.8321 42.1468 63.6655 34.4918C63.8584 33.6864 64.8853 33.3547 65.4706 33.9407L69.2925 37.7666C69.9223 38.397 71 37.951 71 37.0598V2.75568C71 1.82112 69.8321 1.3973 69.2327 2.11436L49.4855 25.7399C49.018 26.2992 49.2867 27.1546 49.99 27.3461L58.7193 29.723C58.7193 29.723 55.4444 43.9343 39.0702 46.9066Z" fill="#F3FBFF"/>
<path d="M63.7896 42.2048C58.9478 52.0808 48.1594 59.5435 37.635 61.3251C37.4335 61.3645 37.2635 61.3922 37.1194 61.4115C36.3464 61.5122 36.3407 61.383 36.0353 61.4183C35.0621 61.5237 34.4793 61.8084 33.7675 61.8855C30.2512 62.2597 26.9227 62.3093 23.471 61.9148C19.9188 61.4305 21.6799 61.142 20.4734 60.8461C18.1647 60.1856 20.0555 61.1727 19.0977 61.1234C16.391 60.5176 13.7169 59.5813 11.2261 58.3671C11.8568 58.5982 12.5043 58.8157 13.1567 59.0163C12.0417 58.5708 10.5065 57.7746 12.4089 58.4417C12.0096 58.2299 11.6571 58.0227 11.26 57.7961C11.0509 57.9466 9.15752 57.0105 8.93084 57.0028C8.7027 57.0177 9.77194 57.5639 9.76306 57.5656C9.58501 57.7375 5.46698 54.9707 5.24976 54.671C4.53021 54.0728 5.32099 54.378 4.68386 53.903C3.61188 53.0626 3.98484 54.0201 3.01895 52.3049C2.34992 51.9489 2.368 51.8274 1.73359 51.1338C1.65139 51.0421 1.63239 51.1913 1.59352 51.1533C0.57941 50.1352 1.46608 50.8213 1.47162 50.8094C1.49327 50.722 1.34882 50.5098 1.1682 50.2718C0.88147 49.9345 0.714433 49.3799 0.78648 48.9346C0.845219 48.4844 1.07434 48.1653 1.19022 48.0415C1.38166 47.8326 1.62026 47.6775 1.86839 47.5852C5.30374 46.4117 7.90285 45.4766 11.5253 44.0233C11.6361 43.9788 11.7771 43.9203 11.9399 43.8518L11.7616 44.12C11.7602 42.9957 11.7298 40.8955 11.7564 40.1601C11.7862 39.3209 11.8898 39.7712 11.9417 39.3319C11.6897 38.6278 11.6761 37.9562 11.8414 36.3755C11.6721 35.787 11.811 35.8627 11.7837 34.7352C11.7793 34.5439 11.768 34.3238 11.7546 34.0856C11.6447 32.6308 14.0161 32.1288 14.5145 33.3096C14.0477 32.6769 13.5885 32.7184 13.2756 32.7245C12.9581 32.7801 12.5187 32.7904 12.0389 33.4421C11.9933 33.5178 11.852 33.744 11.8538 34.0856C11.8608 35.4254 11.8761 38.5348 12.031 38.2503C12.1269 38.0707 12.0387 36.5369 12.0564 36.4776C12.1547 36.1325 12.2802 36.9886 12.2404 37.7474C12.219 37.5583 12.1974 37.3304 12.1765 37.1271C12.0515 38.8314 12.5467 37.6594 12.1139 38.9547C12.06 39.1148 12.0037 39.0528 11.9454 39.3168C11.9693 39.371 12.0287 39.0481 12.0392 39.3262C12.0503 39.61 11.9354 40.1488 12.0318 40.2291C12.1726 40.3492 12.1153 39.1736 12.1235 39.0852C12.1227 39.0842 12.1218 39.0833 12.121 39.0823C12.1919 38.3002 12.2045 39.9337 12.2183 40.0117C12.3077 40.517 12.3731 40.1724 12.4518 40.9307C12.4972 41.3632 12.4816 42.4651 12.4988 42.8717C12.5167 43.2756 12.581 42.6471 12.5986 42.9189C12.6166 43.1908 12.5663 43.5292 12.587 43.8483C12.5961 43.9849 12.6757 43.9779 12.6792 44.044C12.6807 44.071 12.6819 44.0963 12.6828 44.12L12.671 44.5555L12.2967 44.701C11.7532 44.9538 12.0667 44.6501 11.5026 44.9039C11.1222 45.0739 9.90156 45.7776 10.8039 45.4377C10.3856 45.6378 9.97623 45.8295 9.5589 46.0258C9.83506 45.9328 10.1169 45.8282 10.388 45.7413C9.5778 46.0518 9.27417 46.3419 8.78093 46.571C8.28761 46.8004 7.77198 46.8313 7.25782 47.1514C6.16151 47.8374 9.02191 46.4856 9.39364 46.3574C9.53844 46.3072 9.05403 46.6702 8.97298 46.7108C8.61245 46.8897 8.13948 46.9908 7.8578 47.1198C6.84984 47.5826 6.28132 47.9819 5.32658 48.4371C4.50595 48.8278 3.6348 49.2405 2.74107 49.6621C2.87124 49.6234 3.01713 49.4998 3.07635 49.3247C3.14589 49.156 3.09841 48.8738 2.9771 48.7263C4.46106 50.3113 6.31878 51.6892 7.93995 52.6938C8.95432 53.32 9.49932 53.8178 9.97946 54.0696C11.1096 54.6421 11.3263 54.5573 12.3277 54.988C13.8297 55.6346 15.9646 56.4854 17.292 56.8428C18.2113 57.1015 19.0903 57.0988 19.3287 57.1393C22.6903 57.7541 26.8664 57.8534 29.7011 57.5928C31.0222 57.4811 31.6874 57.5991 31.9573 57.5602C33.1396 57.371 32.7977 57.2327 33.7487 57.0944C34.2647 57.0147 34.3937 57.1701 34.4644 57.1646C35.0778 57.1092 35.1537 56.854 35.6239 56.7473C35.7907 56.7091 35.9578 56.6707 36.1253 56.6319C38.6213 56.0517 41.0209 55.4291 43.333 54.436C43.5132 54.3583 43.5409 54.4651 43.6549 54.4078C44.1403 54.1567 43.8416 54.1062 44.3427 53.8535C45.3908 53.3179 46.4503 52.7723 47.5158 52.1341C47.6204 52.071 47.7428 52.1645 47.9782 52.0137C48.213 51.8622 48.3233 51.6279 48.689 51.387C49.6464 50.7533 50.6493 50.195 51.5847 49.4021C51.74 49.27 51.8081 48.9756 52.035 48.7726C52.7425 48.1482 53.8459 47.2604 54.39 46.6564C56.2035 44.666 57.534 42.5485 58.7102 40.3275C58.9836 39.811 59.3688 39.4058 59.5011 39.1335C59.8031 38.5009 59.4409 38.9101 59.7219 38.2738C60.3422 36.8424 60.854 35.3672 61.2049 33.9025C61.7692 31.3248 65.2051 30.1019 67.2601 32.153C68.5307 33.4274 69.8018 34.7053 71.0766 35.9844C70.1903 35.0364 68.4364 35.7612 68.4796 37.0598C68.4793 35.8559 68.4775 34.6503 68.4728 33.4429C68.4636 30.9727 68.2884 27.966 68.3357 25.5787C68.3414 25.2978 68.364 25.0819 68.3934 24.9009C68.468 24.4423 68.5869 24.2072 68.5885 23.7039C68.5916 22.4515 68.2965 22.2244 68.2682 20.9035C68.2461 19.8492 68.5419 18.6411 68.5253 17.5443C68.5088 16.4475 68.2243 15.9414 68.1931 14.6815C68.1677 13.6438 68.3008 12.195 68.2834 11.0652C68.2405 8.2864 68.2061 5.51902 68.1853 2.75568C68.12 4.37867 70.3948 5.21815 71.4037 3.92894C67.1231 9.09782 62.7792 14.1993 58.2646 19.2813C56.0293 21.7995 53.6402 24.6289 51.2111 27.1823C51.4467 26.8834 51.521 26.4004 51.3912 26.065C51.316 25.8743 51.2667 25.9539 51.1948 25.9288C51.1053 25.9277 51.0733 25.7233 50.5724 25.478C50.55 25.4691 50.528 25.4609 50.5054 25.4532C51.1017 25.5803 51.9633 25.6296 53.273 25.9941C55.2478 26.5433 57.2465 27.1313 59.2597 27.7381L61.1911 28.2978L60.7239 30.1849C58.5233 37.2644 53.3269 42.8416 47.0859 45.8829C44.6255 47.0927 42.0323 47.9391 39.3514 48.4557C27.7255 51.0016 17.814 41.8839 13.9815 34.0292C13.7277 33.5406 14.1022 33.6449 14.3478 33.8756C14.4794 34.1665 14.5789 34.4256 14.7168 34.7317C15.2245 34.8628 15.0993 34.8656 15.9758 36.0742C16.5264 36.814 16.1946 36.1434 16.53 36.4968C16.9458 36.9823 19.0741 39.0438 18.5114 38.7922C18.6714 38.8988 18.8164 38.9896 18.9725 39.0881C20.4934 40.6004 22.1209 41.9127 23.8878 43.0073C24.1934 43.1947 24.2585 43.1282 24.5772 43.3135C25.4356 43.8037 26.0883 44.2398 27.0094 44.673C27.5095 44.9015 27.6276 44.8353 28.2862 45.1118C28.9509 45.3761 28.8826 45.5291 29.8685 45.6639C29.318 45.3102 31.9874 46.2171 32.998 46.27C33.1442 46.2954 34.3419 46.221 34.9621 46.2403C35.5868 46.2737 36.5566 46.3723 37.5166 46.1815C37.975 46.0905 38.2129 45.8961 38.6979 45.7975C38.7511 45.7865 38.8067 45.7785 38.8643 45.7724C39.1827 45.7379 39.5567 45.7626 39.9207 45.6833C40.3423 45.597 41.2622 45.2254 41.4177 45.1729C42.0128 44.9862 41.3785 45.284 41.7949 45.1631C43.8121 44.579 46.0538 43.629 47.7429 42.4518C47.9506 42.3082 47.5885 42.3866 47.6145 42.3646C48.9339 41.3021 48.2761 41.9335 48.7217 41.7709C49.1825 41.6606 51.6297 39.4529 51.4323 39.2379C51.7094 39.382 52.0581 38.6949 52.1692 38.5544C52.6338 37.9857 52.728 38.2722 53.125 37.6696C53.2673 37.4484 52.8115 37.7292 52.9922 37.5156C53.4269 36.996 54.0341 36.671 54.5756 35.9185C54.7035 35.7387 54.6427 35.6001 54.8547 35.2715C55.0816 34.9464 56.0225 33.5693 55.413 34.1047C56.0806 33.3306 56.0754 33.0848 56.5461 32.0284C56.6667 31.7481 57.0122 31.4846 57.1644 30.8656C57.2112 30.6647 57.0177 30.5902 57.1116 30.2982C57.2092 29.991 57.3526 29.6586 57.4562 29.4319L58.3788 30.9736C57.9779 30.8073 57.5531 30.6263 57.0404 30.4859C55.2716 30.0004 53.3422 29.6539 51.5082 29.1109C51.0098 28.963 51.1935 28.7824 50.4641 28.5839C50.401 28.5671 50.0539 28.5435 49.6768 28.4966C49.1142 28.3987 48.5522 27.9698 48.3215 27.5452C48.0895 27.2777 47.7351 25.8592 48.5842 24.9867C48.8965 24.662 49.195 24.3513 49.2957 24.2375C49.6556 23.8302 49.5484 23.6141 49.7708 23.4122C50.4139 22.8283 50.2249 23.57 50.5419 22.4856C50.9487 22.382 51.3154 21.9 51.6744 21.9474C51.6413 21.4607 52.1807 21.3164 52.5301 20.7182C52.8797 20.1201 52.7306 19.2655 53.3802 19.5928C53.5179 19.292 54.2714 18.1499 54.4091 17.9662C54.8163 17.4258 54.7379 17.8312 55.0428 17.4213C55.0966 17.3493 54.9325 17.3347 55.3102 16.8994C55.5582 16.6137 57.3321 14.4849 57.4522 14.3697C58.8228 13.0547 56.9005 15.2494 56.7534 15.6586C56.6775 15.689 56.602 15.7189 56.5234 15.7534C55.9414 16.3542 56.4813 16.1864 56.7783 15.9418C57.0752 15.697 57.421 15.0651 57.7003 14.8888C57.8398 14.8012 58.0638 15.115 57.7258 15.4498C58.1385 15.1342 57.7879 15.7432 57.999 15.6584C58.2308 15.565 59.7213 13.8422 59.5701 13.7001C59.2917 14.0219 58.9576 14.4327 58.6752 14.7573C58.0416 14.961 58.1936 12.8608 59.5698 11.9686C60.5699 11.3229 59.5902 12.9465 61.0798 10.6862C60.8041 10.9948 60.5544 11.2421 60.3025 11.5213C60.0685 11.3779 60.6874 11.1006 60.822 10.8034C60.8858 10.66 60.1436 11.2525 60.6103 10.5895C61.3532 10.3048 61.394 9.64205 62.1342 8.74205C61.9811 9.03613 61.8273 9.33017 61.6739 9.62401C63.1512 8.29263 60.2964 11.867 62.8692 9.02745C62.5839 9.38945 62.2878 9.73941 62.0061 10.1075C62.26 10.0272 62.353 10.573 62.5502 10.476C63.0679 10.2218 63.4605 9.53382 63.8889 9.05416C64.0762 8.84408 64.052 9.05124 64.0677 9.03354C64.3249 8.74644 64.1414 8.70395 64.3502 8.43792C64.6129 8.10311 65.5274 7.26639 65.6411 7.10179C65.9353 6.67606 65.1287 7.12018 65.1416 7.06626C65.2285 6.71068 65.7615 6.28162 65.5766 6.17302C64.6524 7.50494 61.5295 10.9594 63.9589 7.50341C62.9554 8.17728 62.8121 7.62064 63.8485 6.312C64.7061 5.22965 64.2819 6.03601 64.9003 5.61639C64.9795 5.5615 66.2383 4.20393 66.1857 4.03653C66.3988 4.31124 67.0152 4.04227 67.0256 4.57715C67.0272 4.65556 66.5251 5.22473 66.9109 5.20216C67.1043 5.1913 67.5847 5.09776 67.6837 5.2603C67.6878 5.06044 67.6843 4.84496 67.6856 4.63963C68.3875 3.74446 68.5949 3.70733 69.1747 3.3817C69.0811 3.34044 68.3963 3.51665 69.0523 2.92822C69.0868 2.89871 69.2252 2.96394 69.5663 2.67143C69.6249 2.62097 69.6798 2.57397 69.7309 2.53073C69.8755 2.46418 69.9265 2.52873 69.9532 2.60195C69.9824 2.67548 69.9778 2.82085 70.1646 2.9326C70.0019 2.96444 69.9559 2.91478 69.9088 2.90949C69.8544 2.90398 69.7532 2.8085 69.7176 2.75568C69.6517 3.26249 69.5911 3.80838 69.652 4.6447C70.1073 4.34001 70.1053 3.84673 70.0326 2.75568C70.0109 2.71665 69.9959 2.76385 69.9914 2.78112C70.0731 2.67552 70.14 2.55907 70.1768 2.42594C70.32 2.59335 70.2465 2.68472 70.2201 2.75568C70.0933 3.60055 70.159 3.12795 70.3702 4.15307C70.4366 4.47454 70.3635 6.18865 70.7445 5.61661C70.8341 5.4816 70.8241 4.41669 70.9649 4.53881C70.9917 4.56244 71.0601 5.85703 71.0237 5.97115C70.5727 7.40357 70.2599 4.84381 70.4212 8.78857C70.426 8.89724 70.5912 8.93542 70.6141 9.14784C70.6569 9.54722 70.4652 9.55224 70.5093 9.90892C70.5534 10.2658 70.8114 10.7603 70.5724 11.2968C70.1366 12.2778 69.8891 9.96383 70.1207 8.93322C69.5549 8.51483 69.5302 15.8779 69.5796 16.3341C69.7906 18.3263 69.6707 15.0111 69.8292 14.8403C69.8962 14.7694 70.7441 14.8047 70.1945 13.9658C70.0318 13.7176 69.816 14.755 69.7267 14.136C69.6376 13.5167 69.8868 13.7621 69.9043 13.7172C69.9641 13.5631 69.8723 12.9044 69.9078 12.819C70.4452 11.5047 71.2553 11.6252 70.0569 13.3673C70.3273 14.1261 70.7596 12.3845 70.943 13.3276C71.1665 14.474 70.7799 15.3107 70.7623 15.4549C70.5556 17.1823 71.121 15.1904 70.9403 17.3004C70.8396 18.4752 70.5643 15.5422 70.6007 18.225C70.6317 20.4706 70.8291 19.2579 71.2771 19.421C71.3819 19.4595 71.5108 20.6899 71.4643 19.0145C71.3476 18.9672 71.1938 18.8778 71.0862 18.7715C71.1714 18.3605 71.755 17.6753 71.7752 17.4573C71.8717 16.3913 71.5691 16.4428 71.9251 15.8141C71.5355 16.2631 71.77 15.5324 71.6876 15.2582C71.3838 14.2401 71.2722 15.5751 71.6602 13.2898C71.478 13.5877 71.299 13.8571 71.1172 14.1454C71.1109 13.8713 71.1045 13.597 71.0982 13.3229C71.4999 12.914 71.4473 11.4577 71.8524 12.7764C71.9657 11.1906 71.8773 10.5495 71.5658 10.202C71.5063 10.136 71.4824 9.89771 71.4765 9.61772C71.389 9.67068 71.1186 9.73843 71.0855 9.6943C70.794 9.29964 71.2974 8.68774 71.4895 8.89635C71.4985 8.70052 71.5092 8.54547 71.5138 8.49076C71.5434 8.14379 71.7176 8.82399 71.7768 8.54276C71.7961 8.45007 71.7573 7.47251 71.8277 7.45361C72.2792 7.33578 71.9564 8.94448 72.213 5.71399C71.8028 5.63599 71.8949 7.13644 71.458 6.75114C70.9892 6.33748 71.6169 5.49372 71.0428 5.30934C71.1371 5.24082 71.2158 5.21051 71.3231 5.15146C71.0728 3.84451 71.55 3.8272 71.6546 3.42792C71.6931 3.28169 71.7231 3.03624 71.7437 2.75568C71.7866 2.25016 71.4858 1.60541 71.0354 1.31101C70.595 0.996805 70.1025 0.973118 69.8557 1.02236C69.6036 1.07869 69.5813 1.12247 69.8659 1.13967C70.1145 1.17823 70.8635 1.22827 71.2684 2.1189C70.9305 1.52532 70.1916 1.26757 69.6041 1.4943C69.4693 1.23822 69.429 1.08973 69.2987 1.0556C69.1788 1.02818 68.8939 1.09806 68.5241 1.5221C68.3352 1.74861 68.0442 2.11005 67.541 2.64832C67.203 3.00957 66.8153 2.89508 66.8439 3.55042C66.554 3.22235 65.8205 4.51352 65.6931 4.58471C64.8743 5.04012 66.5817 2.23512 67.4363 2.40673C67.5575 1.79362 67.8593 2.04842 68.2105 1.54439C68.2554 1.47985 68.2965 1.41991 68.3348 1.36382C68.7768 0.792647 69.3338 0.555104 69.8875 0.538549C70.4283 0.538467 71.151 0.715773 71.6521 1.59589C71.9004 1.85201 71.9434 1.86247 71.8738 1.64721C71.8011 1.44123 71.5414 1.03744 71.0802 0.766322C70.6286 0.489138 69.9805 0.365158 69.3947 0.507856C68.8023 0.641153 68.3719 1.00876 68.1625 1.21981C68.0341 1.31915 67.9765 1.31607 68.048 1.12413C68.2166 0.864568 68.7281 0.121222 70.0027 0.01232C70.4779 -0.0162019 71.1007 0.0751116 71.7179 0.499186C72.3318 0.897775 72.9149 1.79669 72.9239 2.75568C73.3368 7.59081 73.6141 19.7715 73.7098 24.9009C73.7212 25.4879 73.7306 25.9826 73.7382 26.3634C73.8236 30.7068 73.8869 33.8694 73.9165 37.0598C74.0942 40.3395 69.5302 42.3445 67.2185 39.8385C66.0567 38.6836 64.8447 37.4647 63.4777 36.073C63.459 36.054 63.4354 36.0301 63.4073 36.0018C63.6062 36.2339 64.2972 36.6487 64.9666 36.5412C65.5964 36.4776 66.2962 35.9656 66.4693 35.1633C66.0503 36.7385 65.3892 38.2056 65.3539 37.4824C65.3613 37.2984 65.8622 35.0014 64.9186 36.8149C65.2564 36.4912 65.0224 37.6679 65.0075 37.7613C64.6792 40.0647 65.3661 38.9494 63.7896 42.2048ZM54.587 47.9996C57.4591 44.9686 55.1818 47.046 55.2253 45.9496C54.8919 46.3429 54.5415 46.736 54.1883 47.1128C54.313 47.0425 54.4358 46.9727 54.5594 46.9011C54.5598 46.9007 54.5602 46.9003 54.5606 46.8998C54.5781 47.2627 54.5862 47.6303 54.587 47.9996ZM11.5819 45.3587C11.4457 45.4724 11.3116 45.5858 11.1624 45.7051C10.6313 45.9236 10.1021 46.141 9.57053 46.3586C9.61979 46.2989 9.66681 46.2399 9.71616 46.1804C10.3387 45.9082 10.9592 45.6367 11.5819 45.3587ZM70.016 8.3253C70.2833 7.51222 69.8083 7.58555 70.0262 6.50533C69.676 6.63769 69.3333 6.78471 68.9862 6.92416C69.0355 7.74638 69.1685 7.93324 69.0804 8.82639C69.1935 8.72242 69.3073 8.616 69.421 8.51439C69.3971 8.36566 69.3699 8.20743 69.3488 8.06342C69.6646 7.83424 69.7094 9.26145 70.0167 8.32814C70.0165 8.32719 70.0162 8.32625 70.016 8.3253ZM69.8832 3.06573C69.5673 3.37163 68.3241 4.5904 68.2814 4.86286C68.1362 5.78589 71.0474 1.8488 69.0583 4.88134C69.121 4.91225 69.1614 4.9675 69.213 5.0106C69.6547 4.52342 70.0927 4.03561 70.5338 3.54175C70.3047 3.39648 70.1163 3.20822 69.8832 3.06573ZM62.0622 35.0977C62.1192 34.9346 62.211 34.5585 62.2764 34.1591C62.5138 32.7999 64.0187 31.947 65.0535 32.0477C65.5759 32.0647 65.9565 32.2205 66.0915 32.2377C66.2234 32.2672 66.155 32.1125 65.6553 31.8777C65.3447 31.7256 64.4486 31.6191 63.6555 32.0282C62.8518 32.3977 62.2031 33.3105 62.0957 34.1158C62.0864 34.2886 62.067 34.4433 62.0343 34.553C61.9378 34.8698 61.8003 34.4578 61.7153 35.0978C61.8257 35.0998 61.9443 35.1153 62.062 35.0958C62.0621 35.0964 62.0622 35.097 62.0622 35.0977ZM63.0438 36.6889C63.2254 36.0108 63.3689 35.3305 63.4932 34.6375C63.1098 35.0626 62.9939 36.0676 62.6058 35.9995C62.632 35.817 62.6591 35.6258 62.6826 35.4387C62.8037 35.3251 62.9231 35.214 63.0413 35.1026C63.0043 34.6285 62.8855 34.6924 62.961 34.3231C63.0085 34.1137 63.1175 33.7918 63.4552 33.4712C63.0408 33.601 62.7102 33.8398 62.5034 34.2135C62.2132 34.5041 62.1232 34.9421 62.1248 36.206C61.9244 35.7792 60.8615 35.7635 61.2221 36.9447C61.2869 37.1711 61.6401 36.455 61.6602 36.4556C61.9568 36.4284 61.9768 36.9014 62.2614 36.8627C62.3913 36.8461 62.5482 36.3766 62.7241 36.3533C62.8111 36.3428 62.8701 36.8745 63.0438 36.6889ZM61.2928 37.4924C61.2121 37.2432 60.6046 37.7522 60.441 38.331C60.176 39.2457 61.1144 38.0325 61.2928 37.4924ZM11.5853 45.357C11.5842 45.3576 11.583 45.3582 11.5819 45.3587C11.5824 45.3583 11.5829 45.3579 11.5834 45.3575C11.584 45.3573 11.5847 45.3572 11.5853 45.357ZM69.7354 2.90001C69.7137 3.18526 70.0604 3.19116 70.088 3.39098C70.2452 3.32894 70.3802 3.18159 70.3972 3.08769C70.3884 3.09508 70.3796 3.10246 70.3709 3.10984C70.4237 3.1509 70.4781 3.19026 70.5304 3.23088C70.536 3.22494 70.5416 3.219 70.5472 3.21305C70.235 3.67115 69.3801 3.63739 69.1711 2.91514C69.3631 2.9555 69.558 2.95084 69.7354 2.90001ZM66.0759 7.65003C65.4489 8.36115 66.1889 7.94411 66.1654 8.19552C66.1416 8.4468 65.5076 9.01724 65.7296 9.07335C66.0956 8.65222 66.4771 8.21276 66.8471 7.78573C66.5785 7.7553 66.3358 7.68799 66.0747 7.65148C66.0751 7.651 66.0755 7.65051 66.0759 7.65003ZM40.0835 56.6168C40.6924 56.4787 40.5093 56.7697 41.5964 56.1261C41.5955 56.1264 41.5947 56.1268 41.5938 56.1271C40.4351 56.3704 38.9911 56.6666 37.7749 57.1402C38.5988 57.1493 39.1156 56.8266 40.0835 56.6168ZM69.3206 10.5736C69.5062 10.845 69.6635 9.58083 69.4915 9.30194C69.2133 8.85061 69.039 10.1599 69.3206 10.5736ZM14.9266 58.111C13.8542 58.1742 15.4848 59.2869 17.4629 59.573C17.634 59.6015 16.4312 59.1406 16.8191 59.1586C16.8574 59.1621 17.5325 59.35 17.7108 59.3306C17.8913 59.3131 17.7489 59.1364 18.0348 59.1447C18.5403 59.1633 19.5808 59.5705 19.9753 59.5001C20.0279 59.4921 19.3807 59.1792 19.3427 59.1631C18.6831 58.9189 17.9635 58.9982 17.8584 58.9737C17.3148 58.8494 17.4442 58.6841 17.317 58.6064C17.0776 58.4598 16.6067 58.417 16.577 58.4017C15.81 58.018 17.66 58.5788 17.9249 58.5577C18.6445 58.5291 18.0657 58.2456 19.7044 58.4586C19.8696 58.4813 21.7053 58.81 19.4194 58.1869C24.0462 58.505 17.1901 57.5864 16.4666 57.3317C16.1169 57.2787 16.5776 57.5949 16.3499 57.6135C15.8254 57.6575 15.0333 57.4349 15.0192 57.6979C15.0025 58.2614 16.1739 58.2658 16.8765 58.5442C16.768 58.6379 16.7078 58.7417 16.533 58.8133C16.7943 58.7334 14.9983 58.1148 14.927 58.11C14.9268 58.1103 14.9267 58.1107 14.9266 58.111ZM26.802 59.3358C27.8517 59.5107 27.7783 59.133 28.7457 59.3125C29.5752 58.9318 27.913 59.0331 27.715 59.0108C26.8312 58.9404 26.8511 58.5759 25.9517 58.6779C26.2536 58.8981 26.5049 59.1184 26.802 59.3358ZM17.7589 58.1285C18.4777 58.1191 17.2658 57.8323 17.2238 57.7822C16.7795 57.327 20.3914 58.2171 17.7589 58.1285ZM66.4176 34.2146C66.6637 34.483 66.6592 34.1611 66.9332 34.3409C67.2079 34.5207 67.8491 35.4333 67.9287 35.3149C68.0082 35.1954 66.8398 33.5166 68.3266 34.888C68.3339 34.784 68.3918 34.7587 68.4187 34.6851C68.0267 34.2915 67.6321 33.8934 67.24 33.4999C67.296 33.8749 67.3488 34.2639 67.4013 34.6257C67.053 34.5326 67.0924 34.2453 67.0807 34.2336C67.0805 34.2338 67.0804 34.234 67.0802 34.2342C66.6558 33.8364 65.8646 33.612 66.4176 34.2146ZM48.1359 53.4093C48.3163 53.907 48.7194 52.9802 48.9689 52.7353C49.2198 52.4952 49.7094 52.3928 49.4401 52.3052C48.9081 52.4889 48.1206 53.3553 48.1362 53.4098C48.1361 53.4097 48.136 53.4095 48.1359 53.4093ZM32.5119 58.9647C33.3846 58.7312 33.2109 58.6335 34.3035 58.5995C34.2433 58.4923 34.1831 58.3826 34.1239 58.2771C33.2809 58.412 33.3981 58.7338 32.3896 58.7335C32.2266 58.7314 32.5361 58.4278 31.8264 58.5999C32.0508 58.7153 32.2828 58.8445 32.5119 58.9647ZM36.7475 57.7823C36.6215 57.8129 36.5013 57.8572 36.3911 57.9096C35.7157 58.2279 35.4221 58.8579 36.5075 58.4694C36.6261 58.4261 36.7604 58.37 36.9106 58.2989C37.1712 58.1755 37.4832 57.5996 36.7475 57.7823ZM61.0865 40.2547C61.8548 38.7055 60.8661 40.4103 60.5038 40.7277C62.1128 37.0697 60.3733 41.1832 59.6643 41.2329C59.5764 41.7237 59.4199 42.6982 60.0105 41.8645C60.2513 41.5165 60.0322 41.5714 60.0455 41.5496C60.4559 40.8783 60.6469 41.0988 61.0865 40.2547ZM24.9677 59.3144C25.0333 59.3107 24.9389 59.1552 25.1475 59.1335C25.3586 59.1127 25.8184 59.2321 25.8673 59.1391C25.9176 59.0478 24.9844 58.9477 24.6949 58.9979C24.4064 59.0508 24.3747 59.3432 24.9677 59.3144ZM31.6295 59.4871C32.4731 59.2794 31.01 58.8528 30.8255 58.8694C29.1966 59.0422 31.647 59.3081 31.6295 59.4871ZM60.0668 44.3767C60.927 42.3666 59.5845 43.4211 58.5623 44.2831C58.5262 44.4647 58.4854 44.6506 58.4455 44.8314C58.5261 43.93 58.9527 42.5946 57.5213 45.2635C58.5804 43.9886 57.8619 45.1798 57.8725 45.2048C58.4283 45.848 59.5489 43.5639 60.0657 44.3783C60.0661 44.3777 60.0664 44.3772 60.0668 44.3767ZM22.1927 58.9314C21.3059 58.8529 18.9593 58.5391 19.9974 59.0098C20.7262 59.0065 21.4672 58.9814 22.1927 58.9314ZM71.7 22.9456C71.9119 22.1939 71.9081 21.5011 71.8938 20.5744C71.5856 21.4088 71.55 20.8605 71.4745 20.5792C71.3607 20.1525 71.3702 21.1861 71.3494 21.189C71.0563 21.1701 71.0108 20.511 71.0178 22.0115C70.9157 21.6405 70.8128 21.2744 70.7115 20.9035C70.6981 22.0473 70.5068 22.3165 70.273 23.042C70.8441 22.3377 70.4865 23.2651 70.7706 24.1066C70.9129 24.5266 71.5916 23.328 71.7 22.9428C71.7 22.9437 71.7 22.9447 71.7 22.9456ZM61.326 42.5275C61.348 42.2879 61.331 42.042 61.3331 41.8001C61.4349 41.5891 61.5334 41.3822 61.6302 41.1701C61.7217 41.1843 61.8146 41.2044 61.9054 41.2124C62.0694 40.9465 61.9047 40.9998 61.9358 40.9126C61.9362 40.9128 61.9367 40.913 61.9371 40.9132C62.3716 39.6649 62.5907 39.1904 63.23 38.331C62.9776 38.2323 62.7252 38.1335 62.4727 38.0347C62.4141 38.2557 62.3504 38.4803 62.2876 38.6961C62.3756 38.8627 62.4618 39.0318 62.5464 39.2023C62.3651 39.4198 62.1881 39.6208 62.0044 39.8282C61.9635 40.0418 61.9011 40.3008 61.8679 40.4846C60.7356 41.0961 62.226 39.1759 61.9306 39.0194C61.7686 38.9355 60.7607 41.0806 60.7012 41.4325C60.6939 41.4868 61.438 41.2923 60.7571 41.9307C60.6455 42.0313 59.5915 41.4674 59.9556 42.7689C60.0031 42.9572 60.8937 42.9358 61.326 42.5275ZM64.8472 34.8413C64.6448 34.6615 64.5155 34.6796 64.6052 34.5752C64.6448 34.5355 64.7301 34.5234 64.7666 34.5405C64.8047 34.5569 64.8016 34.5719 64.8248 34.5858C64.9924 34.7439 65.0616 34.7608 64.9335 34.4772C64.9381 34.4372 64.9391 34.3854 64.912 34.3219C65.011 34.2554 65.1124 34.2451 65.1806 34.2303C65.2872 34.2331 65.3222 34.1937 65.313 34.0981C65.3123 34.01 65.2741 33.8531 65.0888 33.6616C65.0414 33.5947 65.5092 33.7258 65.4806 33.7134C65.2669 33.4221 64.8259 33.3126 64.5119 33.3384C64.1913 33.3539 63.962 33.4434 63.8722 33.3067C63.68 33.4428 63.5248 33.6063 63.4033 33.8055C64.0624 33.4292 63.5997 34.0643 63.717 34.5041C63.7418 34.6479 63.7664 34.7904 63.8019 34.8996C63.8684 35.1067 64.0076 34.7055 64.0678 34.8802C64.0918 34.9436 63.8638 35.5079 63.959 35.5546C64.1736 35.6719 64.5969 35.3885 64.9221 34.8018C64.9223 34.8019 64.9226 34.8019 64.9228 34.802C64.9232 34.7991 64.9236 34.7962 64.924 34.7932C64.9037 34.8138 64.8732 34.8339 64.8472 34.8413ZM46.4474 56.1908C46.0552 55.9371 45.1994 56.2465 46.6784 55.281C46.5657 55.2511 46.4513 55.2226 46.3391 55.192C46.0813 55.3318 45.8281 55.4654 45.5584 55.6022C45.2461 57.0562 43.1622 56.4963 44.471 56.839C44.6154 56.8755 45.2335 56.4951 44.6802 57.0021C44.6812 57.0019 44.6822 57.0017 44.6831 57.0015C45.5657 56.5337 45.5993 56.3588 46.4474 56.1908ZM51.8991 52.4945C53.1651 50.4683 49.1253 53.9272 49.9459 53.5728C50.0368 53.5606 51.7924 52.0732 51.8991 52.4945ZM35.4574 60.1561C36.4657 59.9902 36.4517 59.5482 36.3191 59.4195C36.187 59.2898 35.5275 59.5733 35.4348 59.564C35.1325 59.5376 35.7335 59.3752 35.3405 59.3356C35.22 59.3288 33.4485 59.4616 33.3807 59.4819C32.9579 59.6422 33.6453 59.8962 33.5263 59.9529C33.1341 60.1398 32.5335 60.032 32.4372 60.227C32.22 60.6465 33.2388 60.1119 33.4123 60.0774C33.9412 59.9848 33.9278 60.2099 34.3386 60.193C34.749 60.1747 35.0087 60.054 35.3583 60.0092C35.4761 59.9939 35.4064 60.1636 35.4574 60.1561ZM38.5608 58.567C37.6091 59.1489 40.2073 58.8506 40.487 58.6659C41.2812 58.1866 39.0112 58.3054 38.5608 58.567ZM62.8792 37.3008C62.8007 38.3113 63.7826 36.2461 63.8341 35.5739C63.7009 35.6665 62.9112 36.9699 62.8792 37.3008ZM59.7319 44.8741C60.1672 44.0779 59.0139 44.7451 58.5894 45.3389C58.6448 45.922 58.8307 45.544 59.1247 45.156C59.4166 44.767 59.3841 45.4905 59.7319 44.8741ZM24.3873 60.425C24.5837 60.4707 27.6869 60.2796 25.9124 60.1254C25.7842 60.1276 23.6232 60.0508 23.4511 60.0696C23.1088 60.1376 23.9003 60.3797 24.3873 60.425ZM57.4974 48.6628C57.571 48.0787 57.8699 47.7294 57.2894 47.8047C57.289 47.8052 57.2886 47.8057 57.2882 47.8062C57.9756 46.811 58.6208 47.2683 58.7785 47.0473C59.2997 46.2788 58.3097 46.6191 58.5058 46.0521C57.8356 47.2102 57.7698 46.6632 57.1107 47.4177C56.9682 47.5826 56.5447 48.4067 56.5563 48.6007C56.5711 48.7959 57.2044 48.7408 57.4974 48.6628ZM20.0144 59.9542C21.0323 60.2421 22.0534 59.9383 20.6246 59.6519C19.9392 59.5056 19.3956 59.7746 20.0144 59.9542ZM67.4147 2.95306C67.6282 2.92512 67.8444 2.89323 68.0646 2.85555C67.8466 3.17217 67.6288 3.48948 67.4111 3.80643C67.5695 3.54452 67.7287 3.28271 67.8891 3.01931C67.3895 3.53831 66.9757 3.62062 67.4135 2.95451C67.4139 2.95403 67.4143 2.95354 67.4147 2.95306ZM50.985 22.5627C50.6812 22.7278 50.5824 23.4708 50.6573 23.4287C51.2218 23.112 51.4073 22.3342 50.985 22.5627ZM64.6009 36.3388C65.0145 35.1419 64.0926 35.7927 63.8219 36.4842C64.0898 36.0876 64.3574 37.0011 64.6009 36.3388ZM56.7534 15.6586C56.8665 15.6132 56.9801 15.5672 57.1016 15.5121C56.798 15.751 56.7146 15.7667 56.7534 15.6586ZM24.8545 60.9611C25.044 61.0221 26.4179 61.1121 26.6105 61.0545C26.999 60.9444 25.9257 60.6105 25.3008 60.676C25.2301 60.6845 24.671 60.9067 24.8574 60.9613C24.8565 60.9612 24.8555 60.9612 24.8545 60.9611ZM66.1728 4.02207C66.1793 4.02478 66.1835 4.02979 66.1857 4.03653C66.1817 4.03143 66.1764 4.02755 66.1728 4.02207ZM51.4081 39.2269C51.4188 39.2282 51.4273 39.2316 51.4323 39.2379C51.4249 39.2341 51.4154 39.2319 51.4081 39.2269ZM34.6466 60.9777C35.2124 61.4842 36.2038 60.9991 35.3265 60.8537C35.2821 60.8463 34.7578 60.9627 34.6466 60.9777Z" fill="#020F15"/>
</svg>
