<svg width="33" height="54" viewBox="0 0 33 54" fill="none" xmlns="http://www.w3.org/2000/svg">
<g filter="url(#filter0_d_3391_48740)">
<path d="M7.84099 52.0822C7.40237 52.0822 7.03124 51.7543 6.9786 51.3184L3.48047 22.4777H29.6463L26.1482 51.3184C26.0955 51.7543 25.7244 52.0822 25.2858 52.0822H7.84099Z" fill="#60DA50"/>
<path d="M30.0693 22.1027L30.0186 22.5226L26.5205 51.3634C26.445 51.988 25.9138 52.457 25.2861 52.4572H7.84082C7.25236 52.4571 6.74886 52.0449 6.62598 51.4786L6.60645 51.3634L3.1084 22.5226L3.05762 22.1027H30.0693Z" stroke="black" stroke-width="0.750004"/>
</g>
<path d="M7.84099 52.0822C7.40237 52.0822 7.03124 51.7543 6.9786 51.3184L3.48047 22.4777H29.6463L26.1482 51.3184C26.0955 51.7543 25.7244 52.0822 25.2858 52.0822H7.84099Z" fill="#60DA50"/>
<path d="M4.83801 33.6428H28.2952L29.6488 22.4777H3.48438L4.83801 33.6428Z" fill="#48AC3A"/>
<path opacity="0.4" d="M15.1354 50.9513C14.6968 50.9513 14.3256 50.6233 14.273 50.1874L10.9125 22.4777H3.48438L6.98251 51.3184C7.03514 51.7543 7.40628 52.0822 7.84489 52.0822H25.2897C25.7283 52.0822 26.0994 51.7529 26.1521 51.3184L26.1966 50.9513H15.1367H15.1354Z" fill="white"/>
<g filter="url(#filter1_d_3391_48740)">
<mask id="path-6-outside-1_3391_48740" maskUnits="userSpaceOnUse" x="0.566406" y="0.0247803" width="32" height="20" fill="black">
<rect fill="white" x="0.566406" y="0.0247803" width="32" height="20"/>
<path d="M29.7686 3.91052L22.4551 4.88806C21.423 5.04002 20.5983 5.78553 20.3418 6.79333L19.5322 11.9125H29.8096C30.4393 11.9125 30.977 12.5339 31.0791 13.3812L31.5488 17.2797C31.6777 18.347 31.074 19.3157 30.2803 19.3158H2.85352C2.05967 19.3158 1.45512 18.3458 1.58398 17.2797L2.05469 13.3812C2.15679 12.534 2.69363 11.9127 3.32324 11.9125H16.5791L17.4785 6.224L17.4912 6.17224C18.0091 3.96949 19.7911 2.33184 22.0303 2.00232L29.3438 1.02478L29.7686 3.91052Z"/>
</mask>
<path d="M29.7686 3.91052L22.4551 4.88806C21.423 5.04002 20.5983 5.78553 20.3418 6.79333L19.5322 11.9125H29.8096C30.4393 11.9125 30.977 12.5339 31.0791 13.3812L31.5488 17.2797C31.6777 18.347 31.074 19.3157 30.2803 19.3158H2.85352C2.05967 19.3158 1.45512 18.3458 1.58398 17.2797L2.05469 13.3812C2.15679 12.534 2.69363 11.9127 3.32324 11.9125H16.5791L17.4785 6.224L17.4912 6.17224C18.0091 3.96949 19.7911 2.33184 22.0303 2.00232L29.3438 1.02478L29.7686 3.91052Z" fill="white"/>
<path d="M29.7686 3.91052L29.848 4.50524C30.0071 4.48397 30.1511 4.39985 30.2477 4.27167C30.3443 4.14349 30.3855 3.98194 30.3622 3.82314L29.7686 3.91052ZM22.4551 4.88806L22.3756 4.29329L22.3677 4.29446L22.4551 4.88806ZM20.3418 6.79333L19.7603 6.64534C19.7558 6.66325 19.752 6.68136 19.7492 6.69961L20.3418 6.79333ZM19.5322 11.9125L18.9396 11.8188C18.9122 11.9921 18.962 12.1688 19.076 12.3022C19.19 12.4356 19.3567 12.5125 19.5322 12.5125V11.9125ZM31.0791 13.3812L31.6748 13.3095L31.6748 13.3094L31.0791 13.3812ZM31.5488 17.2797L30.9531 17.3514L30.9531 17.3516L31.5488 17.2797ZM30.2803 19.3158V19.9158H30.2804L30.2803 19.3158ZM1.58398 17.2797L2.17965 17.3517L2.17966 17.3516L1.58398 17.2797ZM2.05469 13.3812L2.65036 13.4531L2.65038 13.453L2.05469 13.3812ZM3.32324 11.9125V11.3125H3.32307L3.32324 11.9125ZM16.5791 11.9125V12.5125C16.8743 12.5125 17.1256 12.2978 17.1717 12.0062L16.5791 11.9125ZM17.4785 6.224L16.8958 6.08107C16.8918 6.09733 16.8885 6.11375 16.8859 6.1303L17.4785 6.224ZM17.4912 6.17224L18.074 6.31518L18.0753 6.30956L17.4912 6.17224ZM22.0303 2.00232L21.9508 1.40755L21.9429 1.40871L22.0303 2.00232ZM29.3438 1.02478L29.9374 0.937397C29.8895 0.612632 29.5896 0.386576 29.2643 0.430066L29.3438 1.02478ZM29.7686 3.91052L29.6891 3.31581L22.3756 4.29335L22.4551 4.88806L22.5346 5.48278L29.848 4.50524L29.7686 3.91052ZM22.4551 4.88806L22.3677 4.29446C21.0959 4.48171 20.0765 5.40311 19.7603 6.64534L20.3418 6.79333L20.9233 6.94133C21.1201 6.16796 21.75 5.59834 22.5425 5.48167L22.4551 4.88806ZM20.3418 6.79333L19.7492 6.69961L18.9396 11.8188L19.5322 11.9125L20.1249 12.0062L20.9344 6.88706L20.3418 6.79333ZM19.5322 11.9125V12.5125H29.8096V11.9125V11.3125H19.5322V11.9125ZM29.8096 11.9125V12.5125C30.0051 12.5125 30.3995 12.7564 30.4834 13.453L31.0791 13.3812L31.6748 13.3094C31.5545 12.3113 30.8735 11.3125 29.8096 11.3125V11.9125ZM31.0791 13.3812L30.4834 13.453L30.9531 17.3514L31.5488 17.2797L32.1445 17.2079L31.6748 13.3095L31.0791 13.3812ZM31.5488 17.2797L30.9531 17.3516C31.0023 17.7583 30.9084 18.1285 30.7513 18.3806C30.5923 18.6358 30.4121 18.7158 30.2802 18.7158L30.2803 19.3158L30.2804 19.9158C30.9422 19.9157 31.4607 19.5112 31.7698 19.0152C32.0807 18.5161 32.2243 17.8683 32.1445 17.2077L31.5488 17.2797ZM30.2803 19.3158V18.7158H2.85352V19.3158V19.9158H30.2803V19.3158ZM2.85352 19.3158V18.7158C2.72175 18.7158 2.54127 18.6358 2.3819 18.3801C2.22451 18.1277 2.1306 17.7575 2.17965 17.3517L1.58398 17.2797L0.988316 17.2077C0.908505 17.868 1.05244 18.5159 1.36357 19.015C1.67272 19.5108 2.19144 19.9158 2.85352 19.9158V19.3158ZM1.58398 17.2797L2.17966 17.3516L2.65036 13.4531L2.05469 13.3812L1.45901 13.3093L0.988308 17.2077L1.58398 17.2797ZM2.05469 13.3812L2.65038 13.453C2.73437 12.7561 3.12827 12.5125 3.32341 12.5125L3.32324 11.9125L3.32307 11.3125C2.259 11.3128 1.57921 12.3119 1.45899 13.3094L2.05469 13.3812ZM3.32324 11.9125V12.5125H16.5791V11.9125V11.3125H3.32324V11.9125ZM16.5791 11.9125L17.1717 12.0062L18.0712 6.3177L17.4785 6.224L16.8859 6.1303L15.9865 11.8188L16.5791 11.9125ZM17.4785 6.224L18.0612 6.36693L18.0739 6.31518L17.4912 6.17224L16.9085 6.02931L16.8958 6.08107L17.4785 6.224ZM17.4912 6.17224L18.0753 6.30956C18.5368 4.3463 20.122 2.88961 22.1176 2.59593L22.0303 2.00232L21.9429 1.40871C19.4602 1.77407 17.4813 3.59268 16.9071 6.03492L17.4912 6.17224ZM22.0303 2.00232L22.1098 2.59703L29.4232 1.61949L29.3438 1.02478L29.2643 0.430066L21.9508 1.40761L22.0303 2.00232ZM29.3438 1.02478L28.7501 1.11216L29.1749 3.99791L29.7686 3.91052L30.3622 3.82314L29.9374 0.937397L29.3438 1.02478Z" fill="black" mask="url(#path-6-outside-1_3391_48740)"/>
</g>
<defs>
<filter id="filter0_d_3391_48740" x="2.63281" y="21.7277" width="28.6094" height="31.8546" filterUnits="userSpaceOnUse" color-interpolation-filters="sRGB">
<feFlood flood-opacity="0" result="BackgroundImageFix"/>
<feColorMatrix in="SourceAlpha" type="matrix" values="0 0 0 0 0 0 0 0 0 0 0 0 0 0 0 0 0 0 127 0" result="hardAlpha"/>
<feOffset dx="0.750004" dy="0.750004"/>
<feComposite in2="hardAlpha" operator="out"/>
<feColorMatrix type="matrix" values="0 0 0 0 0 0 0 0 0 0 0 0 0 0 0 0 0 0 1 0"/>
<feBlend mode="normal" in2="BackgroundImageFix" result="effect1_dropShadow_3391_48740"/>
<feBlend mode="normal" in="SourceGraphic" in2="effect1_dropShadow_3391_48740" result="shape"/>
</filter>
<filter id="filter1_d_3391_48740" x="0.964844" y="0.424683" width="31.9531" height="20.2411" filterUnits="userSpaceOnUse" color-interpolation-filters="sRGB">
<feFlood flood-opacity="0" result="BackgroundImageFix"/>
<feColorMatrix in="SourceAlpha" type="matrix" values="0 0 0 0 0 0 0 0 0 0 0 0 0 0 0 0 0 0 127 0" result="hardAlpha"/>
<feOffset dx="0.750004" dy="0.750004"/>
<feComposite in2="hardAlpha" operator="out"/>
<feColorMatrix type="matrix" values="0 0 0 0 0 0 0 0 0 0 0 0 0 0 0 0 0 0 1 0"/>
<feBlend mode="normal" in2="BackgroundImageFix" result="effect1_dropShadow_3391_48740"/>
<feBlend mode="normal" in="SourceGraphic" in2="effect1_dropShadow_3391_48740" result="shape"/>
</filter>
</defs>
</svg>
