<svg width="77" height="18" viewBox="0 0 77 18" fill="none" xmlns="http://www.w3.org/2000/svg">
<path d="M74.7719 17.5062C74.1418 17.5062 73.6541 17.3187 73.3091 16.9436C72.964 16.5685 72.7915 16.0284 72.7915 15.3232V8.21168C72.7915 7.50653 72.964 6.96641 73.3091 6.59133C73.6541 6.21625 74.1418 6.02871 74.7719 6.02871C75.417 6.02871 75.9121 6.21625 76.2572 6.59133C76.6173 6.96641 76.7973 7.50653 76.7973 8.21168V15.3232C76.7973 16.0284 76.6248 16.5685 76.2797 16.9436C75.9346 17.3187 75.432 17.5062 74.7719 17.5062ZM74.7719 4.43086C74.0667 4.43086 73.5191 4.26582 73.129 3.93575C72.754 3.60568 72.5664 3.12557 72.5664 2.49544C72.5664 1.8803 72.754 1.4077 73.129 1.07763C73.5191 0.747555 74.0667 0.58252 74.7719 0.58252C75.507 0.58252 76.0622 0.747555 76.4373 1.07763C76.8123 1.4077 76.9999 1.8803 76.9999 2.49544C76.9999 3.12557 76.8123 3.60568 76.4373 3.93575C76.0622 4.26582 75.507 4.43086 74.7719 4.43086Z" fill="white"/>
<path d="M53.6093 17.5062C52.9792 17.5062 52.4916 17.3336 52.1465 16.9885C51.8014 16.6435 51.6289 16.1409 51.6289 15.4807V8.03159C51.6289 7.38645 51.7939 6.89134 52.124 6.54627C52.4691 6.20119 52.9567 6.02865 53.5868 6.02865C54.217 6.02865 54.6971 6.20119 55.0271 6.54627C55.3572 6.89134 55.5223 7.38645 55.5223 8.03159V9.26936L55.2747 8.16662C55.5898 7.50647 56.0549 6.98136 56.67 6.59128C57.3001 6.18619 58.0428 5.98364 58.898 5.98364C59.7082 5.98364 60.3983 6.17869 60.9684 6.56877C61.5536 6.95885 61.9737 7.55148 62.2287 8.34666H61.9136C62.2587 7.6115 62.7763 7.03387 63.4665 6.61378C64.1566 6.19369 64.9218 5.98364 65.762 5.98364C66.6322 5.98364 67.3448 6.15618 67.8999 6.50126C68.4551 6.83133 68.8677 7.35644 69.1377 8.0766C69.4228 8.78175 69.5653 9.67445 69.5653 10.7547V15.4807C69.5653 16.1409 69.3853 16.6435 69.0252 16.9885C68.6801 17.3336 68.185 17.5062 67.5399 17.5062C66.9097 17.5062 66.4221 17.3336 66.0771 16.9885C65.732 16.6435 65.5594 16.1409 65.5594 15.4807V10.8672C65.5594 10.2221 65.4619 9.75696 65.2669 9.4719C65.0718 9.18684 64.7493 9.04431 64.2992 9.04431C63.744 9.04431 63.3165 9.23935 63.0164 9.62944C62.7313 10.0195 62.5888 10.5746 62.5888 11.2948V15.4807C62.5888 16.1409 62.4163 16.6435 62.0712 16.9885C61.7261 17.3336 61.231 17.5062 60.5859 17.5062C59.9407 17.5062 59.4456 17.3336 59.1005 16.9885C58.7555 16.6435 58.5829 16.1409 58.5829 15.4807V10.8672C58.5829 10.2221 58.4854 9.75696 58.2904 9.4719C58.0953 9.18684 57.7727 9.04431 57.3226 9.04431C56.7825 9.04431 56.3624 9.23935 56.0624 9.62944C55.7773 10.0195 55.6348 10.5746 55.6348 11.2948V15.4807C55.6348 16.831 54.9596 17.5062 53.6093 17.5062Z" fill="white"/>
<path d="M32.4023 17.5062C31.7722 17.5062 31.2846 17.3336 30.9395 16.9885C30.5944 16.6435 30.4219 16.1409 30.4219 15.4807V8.03159C30.4219 7.38645 30.5869 6.89134 30.917 6.54627C31.2621 6.20119 31.7497 6.02865 32.3798 6.02865C33.0099 6.02865 33.49 6.20119 33.8201 6.54627C34.1502 6.89134 34.3152 7.38645 34.3152 8.03159V9.26936L34.0677 8.16662C34.3827 7.50647 34.8478 6.98136 35.463 6.59128C36.0931 6.18619 36.8358 5.98364 37.691 5.98364C38.5011 5.98364 39.1913 6.17869 39.7614 6.56877C40.3465 6.95885 40.7666 7.55148 41.0217 8.34666H40.7066C41.0517 7.6115 41.5693 7.03387 42.2594 6.61378C42.9496 6.19369 43.7148 5.98364 44.555 5.98364C45.4251 5.98364 46.1378 6.15618 46.6929 6.50126C47.248 6.83133 47.6606 7.35644 47.9307 8.0766C48.2157 8.78175 48.3583 9.67445 48.3583 10.7547V15.4807C48.3583 16.1409 48.1782 16.6435 47.8182 16.9885C47.4731 17.3336 46.978 17.5062 46.3328 17.5062C45.7027 17.5062 45.2151 17.3336 44.87 16.9885C44.5249 16.6435 44.3524 16.1409 44.3524 15.4807V10.8672C44.3524 10.2221 44.2549 9.75696 44.0598 9.4719C43.8648 9.18684 43.5422 9.04431 43.0921 9.04431C42.537 9.04431 42.1094 9.23935 41.8094 9.62944C41.5243 10.0195 41.3818 10.5746 41.3818 11.2948V15.4807C41.3818 16.1409 41.2092 16.6435 40.8641 16.9885C40.5191 17.3336 40.024 17.5062 39.3788 17.5062C38.7337 17.5062 38.2386 17.3336 37.8935 16.9885C37.5484 16.6435 37.3759 16.1409 37.3759 15.4807V10.8672C37.3759 10.2221 37.2784 9.75696 37.0833 9.4719C36.8883 9.18684 36.5657 9.04431 36.1156 9.04431C35.5755 9.04431 35.1554 9.23935 34.8553 9.62944C34.5703 10.0195 34.4277 10.5746 34.4277 11.2948V15.4807C34.4277 16.831 33.7526 17.5062 32.4023 17.5062Z" fill="white"/>
<path d="M21.5422 17.5512C20.312 17.5512 19.2392 17.3186 18.324 16.8535C17.4088 16.3884 16.6962 15.7208 16.1861 14.8506C15.676 13.9804 15.4209 12.9527 15.4209 11.7674C15.4209 10.8672 15.5634 10.0645 15.8485 9.35938C16.1336 8.63922 16.5461 8.03159 17.0863 7.53648C17.6264 7.02637 18.2715 6.64379 19.0217 6.38873C19.7718 6.11867 20.612 5.98364 21.5422 5.98364C22.7725 5.98364 23.8452 6.21619 24.7604 6.68129C25.6756 7.1464 26.3808 7.81404 26.8759 8.68423C27.386 9.53942 27.6411 10.5671 27.6411 11.7674C27.6411 12.6526 27.4985 13.4553 27.2135 14.1754C26.9284 14.8956 26.5158 15.5107 25.9757 16.0208C25.4506 16.5159 24.8054 16.8985 24.0403 17.1686C23.2901 17.4236 22.4574 17.5512 21.5422 17.5512ZM21.5422 14.603C21.9473 14.603 22.3074 14.5055 22.6225 14.3105C22.9375 14.1004 23.1776 13.7928 23.3426 13.3878C23.5227 12.9677 23.6127 12.4275 23.6127 11.7674C23.6127 10.7622 23.4176 10.042 23.0276 9.60693C22.6375 9.15683 22.1424 8.93178 21.5422 8.93178C21.1371 8.93178 20.7771 9.02931 20.462 9.22435C20.1469 9.41939 19.8994 9.72696 19.7193 10.147C19.5393 10.5521 19.4493 11.0923 19.4493 11.7674C19.4493 12.7576 19.6443 13.4778 20.0344 13.9279C20.4245 14.378 20.9271 14.603 21.5422 14.603Z" fill="white"/>
<path d="M8.61605 17.5515C6.86067 17.5515 5.35284 17.2139 4.09257 16.5388C2.83229 15.8636 1.86458 14.9109 1.18943 13.6806C0.529291 12.4504 0.199219 11.0101 0.199219 9.35971C0.199219 8.12944 0.38676 7.0117 0.761841 6.00648C1.15193 5.00126 1.70705 4.13857 2.4272 3.41841C3.16236 2.69826 4.04756 2.15064 5.08278 1.77556C6.13301 1.38547 7.31077 1.19043 8.61605 1.19043C9.3062 1.19043 10.0189 1.27295 10.754 1.43798C11.5042 1.58802 12.1643 1.82057 12.7344 2.13564C13.1545 2.36068 13.4471 2.64575 13.6121 2.99082C13.7772 3.3359 13.8297 3.68847 13.7697 4.04855C13.7247 4.40863 13.5971 4.7312 13.3871 5.01626C13.177 5.30132 12.907 5.49637 12.5769 5.60139C12.2468 5.69141 11.8868 5.6389 11.4967 5.44386C11.0466 5.23381 10.5965 5.07628 10.1464 4.97125C9.71129 4.85123 9.25369 4.79121 8.77359 4.79121C7.84338 4.79121 7.06321 4.97125 6.43308 5.33133C5.81794 5.67641 5.35284 6.18652 5.03777 6.86166C4.7227 7.53681 4.56517 8.36949 4.56517 9.35971C4.56517 10.3499 4.7227 11.1901 5.03777 11.8803C5.35284 12.5554 5.81794 13.073 6.43308 13.4331C7.06321 13.7782 7.84338 13.9507 8.77359 13.9507C9.16367 13.9507 9.58376 13.9057 10.0339 13.8157C10.484 13.7107 10.9266 13.5531 11.3617 13.3431C11.8117 13.148 12.2093 13.0955 12.5544 13.1855C12.9145 13.2756 13.1995 13.4556 13.4096 13.7257C13.6346 13.9957 13.7772 14.3108 13.8372 14.6709C13.8972 15.0159 13.8447 15.361 13.6797 15.7061C13.5296 16.0512 13.2596 16.3287 12.8695 16.5388C12.3444 16.8538 11.6917 17.1014 10.9116 17.2814C10.1464 17.4615 9.38122 17.5515 8.61605 17.5515Z" fill="white"/>
</svg>
