<svg width="20" height="33" viewBox="0 0 20 33" fill="none" xmlns="http://www.w3.org/2000/svg">
<path d="M4.00275 32.5514C3.7231 32.5514 3.48648 32.3424 3.45293 32.0644L1.22266 13.6768H17.9049L15.6747 32.0644C15.6411 32.3424 15.4045 32.5514 15.1248 32.5514H4.00275Z" fill="#60DA50"/>
<path d="M2.08666 20.7952H17.042L17.905 13.6768H1.22363L2.08666 20.7952Z" fill="#48AC3A"/>
<path opacity="0.4" d="M8.65184 31.8304C8.3722 31.8304 8.13557 31.6213 8.10202 31.3434L5.95951 13.6768H1.22363L3.4539 32.0644C3.48746 32.3424 3.72408 32.5514 4.00373 32.5514H15.1258C15.4055 32.5514 15.6421 32.3415 15.6756 32.0644L15.704 31.8304H8.6527H8.65184Z" fill="white"/>
<path d="M17.9818 1.83984L13.3187 2.46289C12.6607 2.55977 12.1346 3.0352 11.971 3.67773L11.4554 6.94043H18.0072C18.4085 6.94059 18.7506 7.33687 18.8158 7.87695L19.1156 10.3623C19.1977 11.0428 18.813 11.6611 18.307 11.6611H0.82064C0.314518 11.6611 -0.0710875 11.042 0.0110701 10.3623L0.310875 7.87695C0.375981 7.33673 0.718958 6.94043 1.12045 6.94043H9.57259L10.1458 3.31445L10.1536 3.28125C10.4839 1.87697 11.6206 0.833077 13.0482 0.623047L17.7113 0L17.9818 1.83984Z" fill="white"/>
</svg>
