<svg width="57" height="26" viewBox="0 0 57 26" fill="none" xmlns="http://www.w3.org/2000/svg">
<rect y="0.551514" width="57" height="25" rx="4" fill="url(#paint0_linear_528_8287)"/>
<path d="M10.574 18.7135C10.166 18.7135 9.854 18.5995 9.638 18.3715C9.422 18.1435 9.314 17.8255 9.314 17.4175V6.99551C9.314 6.58751 9.428 6.26951 9.656 6.04151C9.896 5.81351 10.22 5.69951 10.628 5.69951C10.988 5.69951 11.27 5.77151 11.474 5.91551C11.69 6.04751 11.888 6.28151 12.068 6.61751L16.226 14.2135H15.614L19.772 6.61751C19.952 6.28151 20.144 6.04751 20.348 5.91551C20.564 5.77151 20.846 5.69951 21.194 5.69951C21.602 5.69951 21.914 5.81351 22.13 6.04151C22.358 6.26951 22.472 6.58751 22.472 6.99551V17.4175C22.472 17.8255 22.364 18.1435 22.148 18.3715C21.932 18.5995 21.62 18.7135 21.212 18.7135C20.804 18.7135 20.486 18.5995 20.258 18.3715C20.042 18.1435 19.934 17.8255 19.934 17.4175V10.1275H20.33L16.982 16.1215C16.838 16.3495 16.682 16.5235 16.514 16.6435C16.358 16.7515 16.148 16.8055 15.884 16.8055C15.62 16.8055 15.404 16.7455 15.236 16.6255C15.068 16.5055 14.918 16.3375 14.786 16.1215L11.402 10.1095H11.834V17.4175C11.834 17.8255 11.726 18.1435 11.51 18.3715C11.306 18.5995 10.994 18.7135 10.574 18.7135ZM30.3196 18.7135C29.9356 18.7135 29.6176 18.6295 29.3656 18.4615C29.1256 18.2815 28.9276 18.0115 28.7716 17.6515L24.2356 7.57151C24.0676 7.21151 24.0196 6.89351 24.0916 6.61751C24.1636 6.32951 24.3136 6.10751 24.5416 5.95151C24.7696 5.78351 25.0456 5.69951 25.3696 5.69951C25.7776 5.69951 26.0896 5.79551 26.3056 5.98751C26.5216 6.16751 26.7016 6.43751 26.8456 6.79751L30.8236 15.9955H29.9236L33.9016 6.77951C34.0576 6.41951 34.2436 6.14951 34.4596 5.96951C34.6756 5.78951 34.9756 5.69951 35.3596 5.69951C35.6836 5.69951 35.9476 5.78351 36.1516 5.95151C36.3676 6.10751 36.4996 6.32951 36.5476 6.61751C36.6076 6.89351 36.5596 7.21151 36.4036 7.57151L31.8676 17.6515C31.6996 18.0115 31.4956 18.2815 31.2556 18.4615C31.0276 18.6295 30.7156 18.7135 30.3196 18.7135ZM39.5277 18.7135C39.0717 18.7135 38.7237 18.5875 38.4837 18.3355C38.2437 18.0835 38.1237 17.7295 38.1237 17.2735V7.28351C38.1237 6.81551 38.2437 6.46151 38.4837 6.22151C38.7357 5.98151 39.0897 5.86151 39.5457 5.86151H43.9197C45.3357 5.86151 46.4277 6.22151 47.1957 6.94151C47.9637 7.64951 48.3477 8.63951 48.3477 9.91151C48.3477 11.1835 47.9637 12.1795 47.1957 12.8995C46.4277 13.6195 45.3357 13.9795 43.9197 13.9795H40.9137V17.2735C40.9137 17.7295 40.7937 18.0835 40.5537 18.3355C40.3257 18.5875 39.9837 18.7135 39.5277 18.7135ZM40.9137 11.8195H43.4517C44.1717 11.8195 44.7177 11.6575 45.0897 11.3335C45.4737 11.0095 45.6657 10.5355 45.6657 9.91151C45.6657 9.28751 45.4737 8.81951 45.0897 8.50751C44.7177 8.19551 44.1717 8.03951 43.4517 8.03951H40.9137V11.8195Z" fill="#020F15"/>
<defs>
<linearGradient id="paint0_linear_528_8287" x1="57" y1="13.0515" x2="0" y2="13.0515" gradientUnits="userSpaceOnUse">
<stop offset="0.0144231" stop-color="#D1F791"/>
<stop offset="1" stop-color="#48B98E"/>
</linearGradient>
</defs>
</svg>
